SplineFontDB: 3.2
FontName: Untitled2
FullName: Untitled2
FamilyName: Untitled2
Weight: Regular
Copyright: Copyright (c) 2022, marco
UComments: "2022-9-15: Created with FontForge (http://fontforge.org)"
Version: 001.000
ItalicAngle: 0
UnderlinePosition: -100
UnderlineWidth: 50
Ascent: 800
Descent: 200
InvalidEm: 0
LayerCount: 2
Layer: 0 0 "Back" 1
Layer: 1 0 "Fore" 0
XUID: [1021 501 -1863293109 8931]
OS2Version: 0
OS2_WeightWidthSlopeOnly: 0
OS2_UseTypoMetrics: 1
CreationTime: 1663283346
ModificationTime: 1663283375
OS2TypoAscent: 0
OS2TypoAOffset: 1
OS2TypoDescent: 0
OS2TypoDOffset: 1
OS2TypoLinegap: 0
OS2WinAscent: 0
OS2WinAOffset: 1
OS2WinDescent: 0
OS2WinDOffset: 1
HheadAscent: 0
HheadAOffset: 1
HheadDescent: 0
HheadDOffset: 1
OS2Vendor: 'PfEd'
DEI: 91125
Encoding: ISO8859-1
UnicodeInterp: none
NameList: AGL For New Fonts
DisplaySize: -48
AntiAlias: 1
FitToEm: 0
WinInfo: 0 27 9
BeginChars: 256 37

StartChar: zero
Encoding: 48 48 1
Width: 622
Flags: HW
LayerCount: 2
Fore
SplineSet
148.799804688 337.549804688 m 4
 148.799804688 203.150390625 198.299804688 103.950195312 311 103.950195312 c 4
 423.700195312 103.950195312 473.200195312 203.150390625 473.200195312 337.549804688 c 4
 473.200195312 471.950195312 423.700195312 569.049804688 311 569.049804688 c 4
 198.299804688 569.049804688 148.799804688 471.950195312 148.799804688 337.549804688 c 4
25 338 m 4
 25 530 125 683 311 683 c 4
 497 683 597 530 597 338 c 4
 597 146 497 -10 311 -10 c 4
 125 -10 25 146 25 338 c 4
EndSplineSet
EndChar

StartChar: one
Encoding: 49 49 2
Width: 242
Flags: HW
LayerCount: 2
Fore
SplineSet
89 449 m 1
 69.251953125 442.41015625 47.3916015625 439.71484375 25 438 c 1
 25 537 l 1
 110 581 134 673 134 673 c 1
 212 673 l 1
 212 0 l 1
 89 0 l 1
 89 449 l 1
EndSplineSet
EndChar

StartChar: two
Encoding: 50 50 3
Width: 601
Flags: HW
LayerCount: 2
Fore
SplineSet
49 402 m 1
 28 546 110 683 290 683 c 0
 430 683 546 598 546 450 c 0
 546 332 497 256 406 192 c 0
 321.686523438 132.702148438 277 112 277 112 c 1
 550 122 l 1
 550 0 l 1
 50 0 l 1
 50 98 l 1
 50 98 171 165 280 233 c 0
 387.459960938 300.0390625 417 373 417 439 c 0
 417 485 396 570 292 570 c 0
 160 570 155 454 162 384 c 1
 49 402 l 1
EndSplineSet
EndChar

StartChar: three
Encoding: 51 51 4
Width: 619
Flags: HW
LayerCount: 2
Fore
SplineSet
58 457 m 9
 58 457 126 440 170 429 c 25
 170 429 173 567 306 567 c 0
 379 567 419 528 419 472 c 0
 419 416 377 385 319 385 c 0
 260 385 l 25
 260 293 l 25
 312 293 l 0
 359 293 423 278 423 190 c 0
 423 132 380 91 305 91 c 8
 230 91 177 118 159 240 c 0
 42 228 l 1
 62 76 148 -10 306 -10 c 0
 452 -10 554 53 554 190 c 0
 554 307 446 341 446 341 c 25
 446 341 546 369 546 475 c 0
 546 631 412 680 322 680 c 0
 232 680 89 636 58 457 c 9
EndSplineSet
EndChar

StartChar: four
Encoding: 52 52 5
Width: 610
Flags: HW
LayerCount: 2
Fore
SplineSet
30 270 m 1
 580 270 l 1
 580 159 l 1
 30 159 l 1
 30 270 l 1
354 539 m 5
 146 248 l 1
 30 270 l 1
 329 673 l 5
 477 673 l 5
 477 0 l 5
 354 0 l 5
 354 539 l 5
EndSplineSet
EndChar

StartChar: five
Encoding: 53 53 6
Width: 574
Flags: HW
LayerCount: 2
Fore
SplineSet
297 357 m 0
 232 357 184 330 152 282 c 1
 52 311 l 1
 103.48046875 673 l 1
 534.48046875 673 l 1
 513.48046875 559.049804688 l 1
 202.48046875 559.049804688 l 1
 180 406 l 1
 180 406 243.952579914 448 315 448 c 0
 469 448 549.48046875 342.950195312 549.48046875 230.950195312 c 0
 549.48046875 98.9501953125 464.48046875 -10 283.48046875 -10 c 0
 160.474609375 -10 72.6904296875 50.453125 25 167.890625 c 1
 136.727539062 217.680664062 l 1
 165.143554688 136.452148438 212.225585938 93.9501953125 283.48046875 93.9501953125 c 0
 381.180664062 93.9501953125 427 149.599609375 427 234 c 0
 427 288.399414062 394 357 297 357 c 0
EndSplineSet
EndChar

StartChar: six
Encoding: 54 54 7
Width: 622
Flags: HW
LayerCount: 2
Fore
SplineSet
158 246 m 1
 132 321 l 1
 180 411 240 434 355 434 c 0
 467.825195312 434 570.248046875 357 570.248046875 224.142578125 c 0
 570.248046875 96 478.998046875 -10 321 -10 c 0
 135 -10 45 146 45 338 c 0
 45 530 145 683 331 683 c 0
 437.989257812 683 510 640 563.250976562 572.0234375 c 1
 472.33203125 495.537109375 l 1
 435 536 402.04296875 569.049804688 331 569.049804688 c 0
 218.299804688 569.049804688 168.799804688 471.950195312 168.799804688 337.549804688 c 0
 168.799804688 203.150390625 208.299804688 103.950195312 321 103.950195312 c 0
 400.483398438 103.950195312 449.248046875 152 449.248046875 224.142578125 c 4
 449.248046875 296 409.264648438 337 333 337 c 0
 260 337 206 314 158 246 c 1
EndSplineSet
EndChar

StartChar: seven
Encoding: 55 55 8
Width: 563
Flags: HW
LayerCount: 2
Fore
SplineSet
390 554 m 5
 45 551 l 5
 55 673 l 1
 533 673 l 1
 532 582 l 1
 396 428 313 254 313 0 c 1
 180 0 l 1
 180 232 271 434 390 554 c 5
EndSplineSet
EndChar

StartChar: eight
Encoding: 56 56 9
Width: 602
Flags: HW
LayerCount: 2
Fore
SplineSet
158.799804688 197.549804688 m 0
 158.799804688 153.150390625 188.299804688 103.950195312 301 103.950195312 c 0
 413.700195312 103.950195312 443.200195312 153.150390625 443.200195312 197.549804688 c 0
 443.200195312 241.950195312 413.700195312 289.049804688 301 289.049804688 c 0
 188.299804688 289.049804688 158.799804688 241.950195312 158.799804688 197.549804688 c 0
35 188 m 0
 35 290 115 373 301 373 c 0
 487 373 567 290 567 188 c 0
 567 86 487 -10 301 -10 c 0
 115 -10 35 86 35 188 c 0
178.799804688 482.549804688 m 0
 178.799804688 448.150390625 198.299804688 403.950195312 301 403.950195312 c 0
 403.700195312 403.950195312 423.200195312 448.150390625 423.200195312 482.549804688 c 0
 423.200195312 516.950195312 403.700195312 569.049804688 301 569.049804688 c 0
 198.299804688 569.049804688 178.799804688 516.950195312 178.799804688 482.549804688 c 0
55 493 m 4
 55 585 125 683 301 683 c 0
 477 683 547 585 547 493 c 4
 547 401 477 320 301 320 c 0
 125 320 55 401 55 493 c 4
EndSplineSet
EndChar

StartChar: nine
Encoding: 57 57 10
Width: 622
Flags: HW
LayerCount: 2
Fore
SplineSet
457.248046875 407 m 1
 483.248046875 332 l 1
 447 287 375.248046875 239 260.248046875 239 c 0
 147.422851562 239 45 316 45 448.857421875 c 0
 45 577 136.25 683 294.248046875 683 c 0
 480.248046875 683 570.248046875 527 570.248046875 335 c 0
 570.248046875 143 470.248046875 -10 284.248046875 -10 c 0
 177.258789062 -10 115.248046875 33 61.9970703125 100.9765625 c 1
 142.916015625 177.462890625 l 1
 180.248046875 137 213.205078125 103.950195312 284.248046875 103.950195312 c 0
 396.948242188 103.950195312 446.448242188 201.049804688 446.448242188 335.450195312 c 0
 446.448242188 469.849609375 406.948242188 569.049804688 294.248046875 569.049804688 c 0
 214.764648438 569.049804688 166 521 166 448.857421875 c 0
 166 377 205.983398438 336 282.248046875 336 c 0
 355.248046875 336 406 362 457.248046875 407 c 1
EndSplineSet
EndChar

StartChar: A
Encoding: 65 65 11
Width: 649
Flags: HW
LayerCount: 2
Fore
SplineSet
199.0546875 266.950195312 m 9
 477.245117188 271.165039062 l 25
 501.129882812 165.790039062 l 25
 169.549804688 165.790039062 l 25
 199.0546875 266.950195312 l 9
269.3046875 673 m 13
 376.084960938 672.995117188 l 5
 634.60546875 0 l 29
 500.96484375 0 l 4
 319.884765625 504.23046875 l 5
 143.01953125 0 l 4
 15 0 l 4
 269.3046875 673 l 13
EndSplineSet
EndChar

StartChar: B
Encoding: 66 66 12
Width: 653
Flags: HW
LayerCount: 2
Fore
SplineSet
80 673 m 1
 376 673 l 2
 542 673 612 593 612 489 c 0
 612 365 498 341 498 341 c 1
 498 341 628 321 628 191 c 0
 628 41 524 0 402 0 c 2
 80 0 l 1
 80 673 l 1
209 559 m 1
 209 391 l 1
 338 393 l 2
 435 393 483 404 483 477 c 0
 483 550 434 559 341 559 c 2
 209 559 l 1
209 279 m 1
 209 111 l 1
 364 113 l 2
 461 113 499 124 499 197 c 0
 499 270 460 279 367 279 c 2
 209 279 l 1
EndSplineSet
EndChar

StartChar: C
Encoding: 67 67 13
Width: 699
Flags: HW
LayerCount: 2
Fore
SplineSet
25 338 m 4
 25 530 150 683 361 683 c 4
 514.005859375 683 621.790039062 602.546875 669.48046875 485.109375 c 5
 557.752929688 435.319335938 l 5
 529.336914062 516.547851562 462.254882812 569.049804688 361 569.049804688 c 4
 223.299804688 569.049804688 148.799804688 471.950195312 148.799804688 337.549804688 c 4
 148.799804688 203.150390625 223.299804688 103.950195312 361 103.950195312 c 4
 471.078125 103.950195312 540.767578125 167.34375 564.297851562 261.434570312 c 5
 679.134765625 217.366210938 l 5
 637.6015625 84.7109375 525.407226562 -10 361 -10 c 4
 150 -10 25 146 25 338 c 4
EndSplineSet
EndChar

StartChar: D
Encoding: 68 68 14
Width: 683
Flags: HW
LayerCount: 2
Fore
SplineSet
189 113 m 1
 354 113 l 2
 441 113 529 164 529 337 c 0
 529 510 444 559 331 559 c 2
 189 559 l 1
 189 113 l 1
658 340 m 0
 658 150 554 0 352 0 c 2
 60 0 l 5
 60 673 l 1
 346 673 l 2
 592 673 658 484 658 340 c 0
EndSplineSet
EndChar

StartChar: E
Encoding: 69 69 15
Width: 569
Flags: HW
LayerCount: 2
Fore
SplineSet
30 673 m 5
 539 673 l 5
 539 559 l 5
 159 559 l 5
 159 391 l 1
 439 392.90625 l 1
 439 279 l 1
 159 279 l 1
 159 111 l 1
 539 112.841796875 l 1
 539 0 l 1
 30 0 l 0
 30 673 l 5
EndSplineSet
EndChar

StartChar: F
Encoding: 70 70 16
Width: 569
Flags: HW
LayerCount: 2
Fore
SplineSet
30 673 m 1
 539 673 l 1
 539 559 l 1
 159 559 l 1
 159 351 l 1
 439 352.90625 l 1
 439 239 l 1
 159 239 l 1
 159 0 l 1
 30 0 l 4
 30 673 l 1
EndSplineSet
EndChar

StartChar: G
Encoding: 71 71 17
Width: 706
Flags: HW
LayerCount: 2
Fore
SplineSet
686 250 m 1
 686 0 l 1
 578 0 l 1
 568 250 l 1
 686 250 l 1
399 230 m 1
 399 329 l 1
 686 329 l 1
 686 230 l 1
 399 230 l 1
25 338 m 0
 25 530 150 683 361 683 c 0
 514.005859375 683 621.790039062 602.546875 669.48046875 485.109375 c 1
 557.752929688 435.319335938 l 1
 529.336914062 516.547851562 462.254882812 569.049804688 361 569.049804688 c 0
 223.299804688 569.049804688 148.799804688 471.950195312 148.799804688 337.549804688 c 0
 148.799804688 203.150390625 223.299804688 103.950195312 361 103.950195312 c 0
 471.078125 103.950195312 520.767578125 167.34375 544.297851562 261.434570312 c 1
 639.134765625 227.366210938 l 5
 597.6015625 94.7109375 505.407226562 -10 341 -10 c 0
 130 -10 25 146 25 338 c 0
EndSplineSet
EndChar

StartChar: H
Encoding: 72 72 18
Width: 617
Flags: HW
LayerCount: 2
Fore
SplineSet
587 673 m 5
 587 0 l 5
 464 0 l 4
 464 673 l 5
 587 673 l 5
153 673 m 5
 153 0 l 5
 30 0 l 4
 30 673 l 5
 153 673 l 5
113.809570312 383.78515625 m 13
 492 388 l 29
 515.884765625 282.625 l 29
 84.3046875 282.625 l 29
 113.809570312 383.78515625 l 13
EndSplineSet
EndChar

StartChar: I
Encoding: 73 73 19
Width: 183
Flags: HW
LayerCount: 2
Fore
SplineSet
153 673 m 5
 153 0 l 5
 30 0 l 4
 30 673 l 5
 153 673 l 5
EndSplineSet
EndChar

StartChar: J
Encoding: 74 74 20
Width: 429
Flags: HW
LayerCount: 2
Fore
SplineSet
399 250 m 2
 399 673 l 5
 276 673 l 1
 276 200 l 2
 276 135 275 102 214 102 c 0
 153.8671875 102 150 149 150 208 c 2
 150 288 l 1
 30 288 l 1
 30 200 l 2
 30 153 46 -9 217 -9 c 0
 411 -9 399 128 399 250 c 2
EndSplineSet
EndChar

StartChar: K
Encoding: 75 75 21
Width: 659
Flags: HW
LayerCount: 2
Fore
SplineSet
384 417 m 5
 644 0 l 5
 501 0 l 4
 288 356 l 5
 384 417 l 5
158 246 m 9
 488 673 l 9
 642 673 l 9
 154 90 l 9
 158 246 l 9
187 673 m 1
 187 0 l 1
 64 0 l 0
 64 673 l 1
 187 673 l 1
EndSplineSet
EndChar

StartChar: L
Encoding: 76 76 22
Width: 509
Flags: HW
LayerCount: 2
Fore
SplineSet
30 673 m 1
 159 673 l 1
 159 111 l 1
 479 112.841796875 l 1
 479 0 l 1
 30 0 l 5
 30 673 l 1
EndSplineSet
EndChar

StartChar: M
Encoding: 77 77 23
Width: 733
Flags: HW
LayerCount: 2
Fore
SplineSet
703 673 m 1
 703 0 l 1
 580 0 l 0
 580 673 l 1
 703 673 l 1
153 673 m 1
 153 0 l 1
 30 0 l 0
 30 673 l 1
 153 673 l 1
425.5 0 m 5
 307.5 0 l 5
 64 619 l 1
 153 673 l 1
 366.5 169 l 5
 580 673 l 1
 669 619 l 1
 425.5 0 l 5
EndSplineSet
EndChar

StartChar: N
Encoding: 78 78 24
Width: 617
Flags: HW
LayerCount: 2
Fore
SplineSet
587 673 m 1
 587 0 l 1
 464 0 l 0
 464 673 l 1
 587 673 l 1
153 673 m 1
 153 0 l 1
 30 0 l 0
 30 673 l 1
 153 673 l 1
153 673 m 1
 506 141 l 1
 464 0 l 1
 118 513 l 5
 153 673 l 1
EndSplineSet
EndChar

StartChar: O
Encoding: 79 79 25
Width: 722
Flags: HW
LayerCount: 2
Fore
SplineSet
148.799804688 337.549804688 m 4
 148.799804688 203.150390625 223.299804688 103.950195312 361 103.950195312 c 4
 498.700195312 103.950195312 573.200195312 203.150390625 573.200195312 337.549804688 c 4
 573.200195312 471.950195312 498.700195312 569.049804688 361 569.049804688 c 4
 223.299804688 569.049804688 148.799804688 471.950195312 148.799804688 337.549804688 c 4
25 338 m 4
 25 530 150 683 361 683 c 4
 572 683 697 530 697 338 c 4
 697 146 572 -10 361 -10 c 4
 150 -10 25 146 25 338 c 4
EndSplineSet
EndChar

StartChar: P
Encoding: 80 80 26
Width: 602
Flags: HW
LayerCount: 2
Fore
SplineSet
154 559 m 1
 154 351 l 1
 303 353 l 2
 400 353 448 364 448 457 c 0
 448 550 399 559 306 559 c 2
 154 559 l 1
154 0 m 1
 25 0 l 5
 25 673 l 1
 341 673 l 2
 507 673 577 593 577 459 c 0
 577 324 478 239 332 239 c 2
 154 239 l 1
 154 0 l 1
EndSplineSet
EndChar

StartChar: Q
Encoding: 81 81 27
Width: 722
Flags: HW
LayerCount: 2
Fore
SplineSet
200 89 m 25
 200 89 216 255 321 255 c 12
 426 255 459.590820312 121.43359375 482 36 c 0
 498 -25 524 -40 546 -40 c 0
 588 -40 618 12 618 12 c 25
 685 -66 l 25
 685 -66 640 -137 553 -137 c 8
 466 -137 409 -83 379 30 c 8
 349 143 330 160 308 160 c 12
 286 160 256 133 246 83 c 0
 246 83 218 87 200 89 c 25
148.799804688 337.549804688 m 0
 148.799804688 203.150390625 223.299804688 103.950195312 361 103.950195312 c 0
 498.700195312 103.950195312 573.200195312 203.150390625 573.200195312 337.549804688 c 0
 573.200195312 471.950195312 498.700195312 569.049804688 361 569.049804688 c 0
 223.299804688 569.049804688 148.799804688 471.950195312 148.799804688 337.549804688 c 0
25 338 m 0
 25 530 150 683 361 683 c 0
 572 683 697 530 697 338 c 0
 697 146 572 -10 361 -10 c 0
 150 -10 25 146 25 338 c 0
EndSplineSet
EndChar

StartChar: R
Encoding: 82 82 28
Width: 614
Flags: HW
LayerCount: 2
Fore
SplineSet
379 337 m 5
 579 0 l 5
 436 0 l 4
 283 276 l 5
 379 337 l 5
154 559 m 1
 154 371 l 1
 303 373 l 2
 400 373 448 384 448 467 c 0
 448 550 399 559 306 559 c 2
 154 559 l 1
154 0 m 1
 25 0 l 1
 25 673 l 1
 341 673 l 2
 507 673 577 593 577 469 c 0
 577 344 478 259 332 259 c 2
 154 259 l 1
 154 0 l 1
EndSplineSet
EndChar

StartChar: S
Encoding: 83 83 29
Width: 604
Flags: HW
LayerCount: 2
Fore
SplineSet
293.48046875 285 m 0
 155.690429688 311.1328125 47.48046875 356 47.48046875 488 c 0
 47.48046875 590 122.48046875 683 293.48046875 683 c 0
 426.486328125 683 510.280273438 628.905273438 558.140625 531.551757812 c 1
 446.5 481.56640625 l 1
 417.977539062 542.745117188 374.735351562 569.049804688 293.48046875 569.049804688 c 0
 195.780273438 569.049804688 171.280273438 531.950195312 171.280273438 487.549804688 c 0
 171.280273438 443.150390625 223.41796875 420.739257812 293.48046875 408.950195312 c 0
 471.48046875 379 579.48046875 332.950195312 579.48046875 190.950195312 c 4
 579.48046875 88.9501953125 504.48046875 -10 313.48046875 -10 c 0
 160.474609375 -10 72.6904296875 50.453125 25 167.890625 c 1
 136.727539062 217.680664062 l 1
 165.143554688 136.452148438 212.225585938 103.950195312 313.48046875 103.950195312 c 0
 431.180664062 103.950195312 455.680664062 147 455.680664062 191.400390625 c 4
 455.680664062 245.799804688 409.48046875 263 293.48046875 285 c 0
EndSplineSet
EndChar

StartChar: T
Encoding: 84 84 30
Width: 569
Flags: HW
LayerCount: 2
Fore
SplineSet
346 643 m 5
 346 0 l 5
 223 0 l 4
 223 643 l 5
 346 643 l 5
30 559 m 5
 30 673 l 5
 539 673 l 5
 539 559 l 5
 30 559 l 5
EndSplineSet
EndChar

StartChar: U
Encoding: 85 85 31
Width: 631
Flags: HW
LayerCount: 2
Fore
SplineSet
601 298 m 6
 601 106 531 -10 320 -10 c 0
 109 -10 30 106 30 298 c 6
 30 673 l 1
 153 673 l 1
 153 298 l 6
 153 163.600585938 182.299804688 103.950195312 320 103.950195312 c 0
 457.700195312 103.950195312 478 163.600585938 478 298 c 6
 478 673 l 1
 601 673 l 1
 601 298 l 6
EndSplineSet
EndChar

StartChar: V
Encoding: 86 86 32
Width: 649
Flags: HW
LayerCount: 2
Fore
SplineSet
380.30078125 0 m 13
 273.520507812 0.0048828125 l 5
 15 673 l 29
 148.640625 673 l 4
 329.720703125 168.76953125 l 5
 506.5859375 673 l 4
 634.60546875 673 l 4
 380.30078125 0 l 13
EndSplineSet
EndChar

StartChar: W
Encoding: 87 87 33
Width: 901
Flags: HW
LayerCount: 2
Fore
SplineSet
701.88671875 0 m 9
 575.106445312 0.0048828125 l 1
 386.5859375 673 l 25
 520.2265625 673 l 0
 641.306640625 168.76953125 l 1
 758.171875 673 l 0
 886.19140625 673 l 0
 701.88671875 0 l 9
330.30078125 0 m 9
 203.520507812 0.0048828125 l 1
 15 673 l 25
 148.640625 673 l 0
 269.720703125 168.76953125 l 1
 386.5859375 673 l 0
 514.60546875 673 l 0
 330.30078125 0 l 9
EndSplineSet
EndChar

StartChar: X
Encoding: 88 88 34
Width: 655
Flags: HW
LayerCount: 2
Fore
SplineSet
15 0 m 5
 476.66015625 673 l 5
 620.30078125 673 l 5
 161.780273438 0.0048828125 l 5
 15 0 l 5
640.30078125 0 m 1
 493.520507812 0.0048828125 l 1
 35 673 l 1
 178.640625 673 l 1
 640.30078125 0 l 1
EndSplineSet
EndChar

StartChar: Y
Encoding: 89 89 35
Width: 621
Flags: HW
LayerCount: 2
Fore
SplineSet
372.825195312 263 m 5
 372.825195312 0 l 5
 249.825195312 0 l 4
 249.825195312 263 l 5
 372.825195312 263 l 5
367.573242188 219.98046875 m 5
 265 255.776367188 l 5
 474.009765625 673 l 1
 607.650390625 673 l 1
 367.573242188 219.98046875 l 5
255.077148438 219.98046875 m 5
 15 673 l 1
 158.640625 673 l 1
 357.650390625 255.776367188 l 5
 255.077148438 219.98046875 l 5
EndSplineSet
EndChar

StartChar: Z
Encoding: 90 90 36
Width: 569
Flags: HW
LayerCount: 2
Fore
SplineSet
30 0 m 1
 30 114 l 1
 539 114 l 1
 539 0 l 1
 30 0 l 1
539 559 m 1
 173 114 l 1
 30 114 l 0
 396 559 l 5
 539 559 l 1
30 559 m 1
 30 673 l 1
 539 673 l 1
 539 559 l 1
 30 559 l 1
EndSplineSet
EndChar
